<mxfile host="app.diagrams.net" modified="2024-07-18T04:53:04.598Z" agent="Mozilla/5.0 (Windows NT 10.0; Win64; x64) AppleWebKit/537.36 (KHTML, like Gecko) Chrome/126.0.0.0 Safari/537.36" etag="MRWY7zwW1gsrxqUTDREs" version="24.7.1" type="device">
  <diagram name="Page-1" id="-4K42o_0yNHBUdgwR4Sq">
    <mxGraphModel dx="2140" dy="565" grid="1" gridSize="10" guides="1" tooltips="1" connect="1" arrows="1" fold="1" page="1" pageScale="1" pageWidth="850" pageHeight="1100" math="0" shadow="0">
      <root>
        <mxCell id="0" />
        <mxCell id="1" parent="0" />
        <mxCell id="lTvQ-CRZ7tVWmcgLaCs9-5" value="us-east-1" style="points=[[0,0],[0.25,0],[0.5,0],[0.75,0],[1,0],[1,0.25],[1,0.5],[1,0.75],[1,1],[0.75,1],[0.5,1],[0.25,1],[0,1],[0,0.75],[0,0.5],[0,0.25]];outlineConnect=0;gradientColor=none;html=1;whiteSpace=wrap;fontSize=12;fontStyle=0;container=1;pointerEvents=0;collapsible=0;recursiveResize=0;shape=mxgraph.aws4.group;grIcon=mxgraph.aws4.group_aws_cloud_alt;strokeColor=#232F3E;fillColor=none;verticalAlign=top;align=left;spacingLeft=30;fontColor=#232F3E;dashed=0;" parent="1" vertex="1">
          <mxGeometry x="-720" y="220" width="780" height="800" as="geometry" />
        </mxCell>
        <mxCell id="lTvQ-CRZ7tVWmcgLaCs9-11" value="VPC" style="sketch=0;outlineConnect=0;gradientColor=none;html=1;whiteSpace=wrap;fontSize=12;fontStyle=0;shape=mxgraph.aws4.group;grIcon=mxgraph.aws4.group_vpc;strokeColor=#879196;fillColor=none;verticalAlign=top;align=left;spacingLeft=30;fontColor=#879196;dashed=0;" parent="lTvQ-CRZ7tVWmcgLaCs9-5" vertex="1">
          <mxGeometry x="40" y="40" width="640" height="580" as="geometry" />
        </mxCell>
        <mxCell id="lTvQ-CRZ7tVWmcgLaCs9-36" value="" style="group" parent="lTvQ-CRZ7tVWmcgLaCs9-5" vertex="1" connectable="0">
          <mxGeometry x="380" y="80" width="280" height="180" as="geometry" />
        </mxCell>
        <mxCell id="lTvQ-CRZ7tVWmcgLaCs9-30" value="Public subnet 1" style="points=[[0,0],[0.25,0],[0.5,0],[0.75,0],[1,0],[1,0.25],[1,0.5],[1,0.75],[1,1],[0.75,1],[0.5,1],[0.25,1],[0,1],[0,0.75],[0,0.5],[0,0.25]];outlineConnect=0;gradientColor=none;html=1;whiteSpace=wrap;fontSize=12;fontStyle=0;container=0;pointerEvents=0;collapsible=0;recursiveResize=0;shape=mxgraph.aws4.group;grIcon=mxgraph.aws4.group_security_group;grStroke=0;strokeColor=#7AA116;fillColor=#F2F6E8;verticalAlign=top;align=left;spacingLeft=30;fontColor=#248814;dashed=0;" parent="lTvQ-CRZ7tVWmcgLaCs9-36" vertex="1">
          <mxGeometry y="19.289999999999964" width="280" height="160.71" as="geometry" />
        </mxCell>
        <mxCell id="lTvQ-CRZ7tVWmcgLaCs9-31" value="Availability Zone us-east-1a" style="fillColor=none;strokeColor=#147EBA;dashed=1;verticalAlign=top;fontStyle=0;fontColor=#147EBA;whiteSpace=wrap;html=1;container=0;" parent="lTvQ-CRZ7tVWmcgLaCs9-36" vertex="1">
          <mxGeometry width="280" height="180" as="geometry" />
        </mxCell>
        <mxCell id="lTvQ-CRZ7tVWmcgLaCs9-32" value="Application&lt;div&gt;Load Balancer&lt;/div&gt;" style="outlineConnect=0;dashed=0;verticalLabelPosition=bottom;verticalAlign=top;align=center;html=1;shape=mxgraph.aws3.application_load_balancer;fillColor=#F58534;gradientColor=none;" parent="lTvQ-CRZ7tVWmcgLaCs9-36" vertex="1">
          <mxGeometry x="200" y="60" width="60.68" height="54.36" as="geometry" />
        </mxCell>
        <mxCell id="lTvQ-CRZ7tVWmcgLaCs9-33" value="Auto Scaling&lt;div&gt;Group&lt;/div&gt;" style="sketch=0;outlineConnect=0;fontColor=#232F3E;gradientColor=none;fillColor=#ED7100;strokeColor=none;dashed=0;verticalLabelPosition=bottom;verticalAlign=top;align=center;html=1;fontSize=12;fontStyle=0;aspect=fixed;pointerEvents=1;shape=mxgraph.aws4.auto_scaling2;" parent="lTvQ-CRZ7tVWmcgLaCs9-36" vertex="1">
          <mxGeometry x="110" y="62.36000000000013" width="52" height="52" as="geometry" />
        </mxCell>
        <mxCell id="lTvQ-CRZ7tVWmcgLaCs9-34" value="Web Server&lt;div&gt;m6g.2xlarge&lt;br&gt;&lt;/div&gt;" style="sketch=0;outlineConnect=0;fontColor=#232F3E;gradientColor=none;fillColor=#ED7100;strokeColor=none;dashed=0;verticalLabelPosition=bottom;verticalAlign=top;align=center;html=1;fontSize=12;fontStyle=0;aspect=fixed;pointerEvents=1;shape=mxgraph.aws4.t3_instance;" parent="lTvQ-CRZ7tVWmcgLaCs9-36" vertex="1">
          <mxGeometry x="10" y="64.00000000000011" width="52" height="52" as="geometry" />
        </mxCell>
        <mxCell id="lTvQ-CRZ7tVWmcgLaCs9-62" style="edgeStyle=orthogonalEdgeStyle;rounded=0;orthogonalLoop=1;jettySize=auto;html=1;" parent="lTvQ-CRZ7tVWmcgLaCs9-5" source="lTvQ-CRZ7tVWmcgLaCs9-14" target="lTvQ-CRZ7tVWmcgLaCs9-32" edge="1">
          <mxGeometry relative="1" as="geometry" />
        </mxCell>
        <mxCell id="lTvQ-CRZ7tVWmcgLaCs9-14" value="" style="sketch=0;points=[[0,0,0],[0.25,0,0],[0.5,0,0],[0.75,0,0],[1,0,0],[0,1,0],[0.25,1,0],[0.5,1,0],[0.75,1,0],[1,1,0],[0,0.25,0],[0,0.5,0],[0,0.75,0],[1,0.25,0],[1,0.5,0],[1,0.75,0]];outlineConnect=0;fontColor=#232F3E;fillColor=#8C4FFF;strokeColor=#ffffff;dashed=0;verticalLabelPosition=bottom;verticalAlign=top;align=center;html=1;fontSize=12;fontStyle=0;aspect=fixed;shape=mxgraph.aws4.resourceIcon;resIcon=mxgraph.aws4.route_53;" parent="lTvQ-CRZ7tVWmcgLaCs9-5" vertex="1">
          <mxGeometry x="705.91" y="141.27" width="51.82" height="51.82" as="geometry" />
        </mxCell>
        <mxCell id="lTvQ-CRZ7tVWmcgLaCs9-51" value="" style="group" parent="lTvQ-CRZ7tVWmcgLaCs9-5" vertex="1" connectable="0">
          <mxGeometry x="70" y="80" width="280" height="180" as="geometry" />
        </mxCell>
        <mxCell id="lTvQ-CRZ7tVWmcgLaCs9-39" value="Availability Zone us-east-1b" style="fillColor=none;strokeColor=#147EBA;dashed=1;verticalAlign=top;fontStyle=0;fontColor=#147EBA;whiteSpace=wrap;html=1;container=0;" parent="lTvQ-CRZ7tVWmcgLaCs9-51" vertex="1">
          <mxGeometry width="280" height="180" as="geometry" />
        </mxCell>
        <mxCell id="lTvQ-CRZ7tVWmcgLaCs9-38" value="Public subnet 2" style="points=[[0,0],[0.25,0],[0.5,0],[0.75,0],[1,0],[1,0.25],[1,0.5],[1,0.75],[1,1],[0.75,1],[0.5,1],[0.25,1],[0,1],[0,0.75],[0,0.5],[0,0.25]];outlineConnect=0;gradientColor=none;html=1;whiteSpace=wrap;fontSize=12;fontStyle=0;container=0;pointerEvents=0;collapsible=0;recursiveResize=0;shape=mxgraph.aws4.group;grIcon=mxgraph.aws4.group_security_group;grStroke=0;strokeColor=#7AA116;fillColor=#F2F6E8;verticalAlign=top;align=left;spacingLeft=30;fontColor=#248814;dashed=0;" parent="lTvQ-CRZ7tVWmcgLaCs9-51" vertex="1">
          <mxGeometry y="19.289999999999964" width="280" height="160.71" as="geometry" />
        </mxCell>
        <mxCell id="lTvQ-CRZ7tVWmcgLaCs9-40" value="Application&lt;div&gt;Load Balancer&lt;/div&gt;" style="outlineConnect=0;dashed=0;verticalLabelPosition=bottom;verticalAlign=top;align=center;html=1;shape=mxgraph.aws3.application_load_balancer;fillColor=#F58534;gradientColor=none;" parent="lTvQ-CRZ7tVWmcgLaCs9-51" vertex="1">
          <mxGeometry x="200" y="60" width="60.68" height="54.36" as="geometry" />
        </mxCell>
        <mxCell id="lTvQ-CRZ7tVWmcgLaCs9-41" value="Auto Scaling&lt;div&gt;Group&lt;/div&gt;" style="sketch=0;outlineConnect=0;fontColor=#232F3E;gradientColor=none;fillColor=#ED7100;strokeColor=none;dashed=0;verticalLabelPosition=bottom;verticalAlign=top;align=center;html=1;fontSize=12;fontStyle=0;aspect=fixed;pointerEvents=1;shape=mxgraph.aws4.auto_scaling2;" parent="lTvQ-CRZ7tVWmcgLaCs9-51" vertex="1">
          <mxGeometry x="110" y="62.36000000000013" width="52" height="52" as="geometry" />
        </mxCell>
        <mxCell id="lTvQ-CRZ7tVWmcgLaCs9-42" value="Web Server&lt;div&gt;m6g.2xlarge&lt;/div&gt;" style="sketch=0;outlineConnect=0;fontColor=#232F3E;gradientColor=none;fillColor=#ED7100;strokeColor=none;dashed=0;verticalLabelPosition=bottom;verticalAlign=top;align=center;html=1;fontSize=12;fontStyle=0;aspect=fixed;pointerEvents=1;shape=mxgraph.aws4.t3_instance;" parent="lTvQ-CRZ7tVWmcgLaCs9-51" vertex="1">
          <mxGeometry x="10" y="64.00000000000011" width="52" height="52" as="geometry" />
        </mxCell>
        <mxCell id="lTvQ-CRZ7tVWmcgLaCs9-60" style="edgeStyle=orthogonalEdgeStyle;rounded=0;orthogonalLoop=1;jettySize=auto;html=1;exitX=0.5;exitY=1;exitDx=0;exitDy=0;entryX=0.5;entryY=0;entryDx=0;entryDy=0;" parent="lTvQ-CRZ7tVWmcgLaCs9-5" source="lTvQ-CRZ7tVWmcgLaCs9-31" target="lTvQ-CRZ7tVWmcgLaCs9-52" edge="1">
          <mxGeometry relative="1" as="geometry" />
        </mxCell>
        <mxCell id="lTvQ-CRZ7tVWmcgLaCs9-61" style="edgeStyle=orthogonalEdgeStyle;rounded=0;orthogonalLoop=1;jettySize=auto;html=1;entryX=0.5;entryY=0;entryDx=0;entryDy=0;" parent="lTvQ-CRZ7tVWmcgLaCs9-5" source="lTvQ-CRZ7tVWmcgLaCs9-39" target="lTvQ-CRZ7tVWmcgLaCs9-47" edge="1">
          <mxGeometry relative="1" as="geometry" />
        </mxCell>
        <mxCell id="lTvQ-CRZ7tVWmcgLaCs9-68" value="" style="group" parent="lTvQ-CRZ7tVWmcgLaCs9-5" vertex="1" connectable="0">
          <mxGeometry x="70" y="300" width="280" height="290" as="geometry" />
        </mxCell>
        <mxCell id="lTvQ-CRZ7tVWmcgLaCs9-47" value="Availability Zone us-east-1b" style="fillColor=none;strokeColor=#147EBA;dashed=1;verticalAlign=top;fontStyle=0;fontColor=#147EBA;whiteSpace=wrap;html=1;container=0;" parent="lTvQ-CRZ7tVWmcgLaCs9-68" vertex="1">
          <mxGeometry width="280" height="290" as="geometry" />
        </mxCell>
        <mxCell id="lTvQ-CRZ7tVWmcgLaCs9-43" value="Private subnet 2" style="points=[[0,0],[0.25,0],[0.5,0],[0.75,0],[1,0],[1,0.25],[1,0.5],[1,0.75],[1,1],[0.75,1],[0.5,1],[0.25,1],[0,1],[0,0.75],[0,0.5],[0,0.25]];outlineConnect=0;gradientColor=none;html=1;whiteSpace=wrap;fontSize=12;fontStyle=0;container=1;pointerEvents=0;collapsible=0;recursiveResize=0;shape=mxgraph.aws4.group;grIcon=mxgraph.aws4.group_security_group;grStroke=0;strokeColor=#00A4A6;fillColor=#E6F6F7;verticalAlign=top;align=left;spacingLeft=30;fontColor=#147EBA;dashed=0;" parent="lTvQ-CRZ7tVWmcgLaCs9-68" vertex="1">
          <mxGeometry y="23.139999999999986" width="280" height="266.86" as="geometry" />
        </mxCell>
        <mxCell id="lTvQ-CRZ7tVWmcgLaCs9-48" value="Application&lt;div&gt;Load Balancer&lt;/div&gt;" style="outlineConnect=0;dashed=0;verticalLabelPosition=bottom;verticalAlign=top;align=center;html=1;shape=mxgraph.aws3.application_load_balancer;fillColor=#F58534;gradientColor=none;" parent="lTvQ-CRZ7tVWmcgLaCs9-68" vertex="1">
          <mxGeometry x="204.66000000000003" y="73.28571428571428" width="60.68" height="52.418571428571425" as="geometry" />
        </mxCell>
        <mxCell id="lTvQ-CRZ7tVWmcgLaCs9-49" value="Auto Scaling&lt;div&gt;Group&lt;/div&gt;" style="sketch=0;outlineConnect=0;fontColor=#232F3E;gradientColor=none;fillColor=#ED7100;strokeColor=none;dashed=0;verticalLabelPosition=bottom;verticalAlign=top;align=center;html=1;fontSize=12;fontStyle=0;aspect=fixed;pointerEvents=1;shape=mxgraph.aws4.auto_scaling2;" parent="lTvQ-CRZ7tVWmcgLaCs9-68" vertex="1">
          <mxGeometry x="120" y="74.4235714285715" width="50.142857142857146" height="50.142857142857146" as="geometry" />
        </mxCell>
        <mxCell id="lTvQ-CRZ7tVWmcgLaCs9-50" value="Application Server&lt;div&gt;m6g.2xlarge&lt;br&gt;&lt;/div&gt;" style="sketch=0;outlineConnect=0;fontColor=#232F3E;gradientColor=none;fillColor=#ED7100;strokeColor=none;dashed=0;verticalLabelPosition=bottom;verticalAlign=top;align=center;html=1;fontSize=12;fontStyle=0;aspect=fixed;pointerEvents=1;shape=mxgraph.aws4.t3_instance;" parent="lTvQ-CRZ7tVWmcgLaCs9-68" vertex="1">
          <mxGeometry x="30" y="75.56142857142845" width="50.142857142857146" height="50.142857142857146" as="geometry" />
        </mxCell>
        <mxCell id="lTvQ-CRZ7tVWmcgLaCs9-65" value="RDS Read Replica&lt;div&gt;db.m5.2xlarge&lt;/div&gt;" style="outlineConnect=0;dashed=0;verticalLabelPosition=bottom;verticalAlign=top;align=center;html=1;shape=mxgraph.aws3.rds_db_instance_read_replica;fillColor=#2E73B8;gradientColor=none;" parent="lTvQ-CRZ7tVWmcgLaCs9-68" vertex="1">
          <mxGeometry x="32.5" y="179.8571428571429" width="49.5" height="63.642857142857146" as="geometry" />
        </mxCell>
        <mxCell id="lTvQ-CRZ7tVWmcgLaCs9-69" value="" style="group" parent="lTvQ-CRZ7tVWmcgLaCs9-5" vertex="1" connectable="0">
          <mxGeometry x="380" y="300" width="280" height="290" as="geometry" />
        </mxCell>
        <mxCell id="lTvQ-CRZ7tVWmcgLaCs9-52" value="Availability Zone us-east-1a" style="fillColor=none;strokeColor=#147EBA;dashed=1;verticalAlign=top;fontStyle=0;fontColor=#147EBA;whiteSpace=wrap;html=1;container=0;" parent="lTvQ-CRZ7tVWmcgLaCs9-69" vertex="1">
          <mxGeometry width="280" height="290" as="geometry" />
        </mxCell>
        <mxCell id="lTvQ-CRZ7tVWmcgLaCs9-53" value="Private subnet 1" style="points=[[0,0],[0.25,0],[0.5,0],[0.75,0],[1,0],[1,0.25],[1,0.5],[1,0.75],[1,1],[0.75,1],[0.5,1],[0.25,1],[0,1],[0,0.75],[0,0.5],[0,0.25]];outlineConnect=0;gradientColor=none;html=1;whiteSpace=wrap;fontSize=12;fontStyle=0;container=1;pointerEvents=0;collapsible=0;recursiveResize=0;shape=mxgraph.aws4.group;grIcon=mxgraph.aws4.group_security_group;grStroke=0;strokeColor=#00A4A6;fillColor=#E6F6F7;verticalAlign=top;align=left;spacingLeft=30;fontColor=#147EBA;dashed=0;" parent="lTvQ-CRZ7tVWmcgLaCs9-69" vertex="1">
          <mxGeometry y="24" width="280" height="266" as="geometry" />
        </mxCell>
        <mxCell id="lTvQ-CRZ7tVWmcgLaCs9-54" value="Application&lt;div&gt;Load Balancer&lt;/div&gt;" style="outlineConnect=0;dashed=0;verticalLabelPosition=bottom;verticalAlign=top;align=center;html=1;shape=mxgraph.aws3.application_load_balancer;fillColor=#F58534;gradientColor=none;" parent="lTvQ-CRZ7tVWmcgLaCs9-69" vertex="1">
          <mxGeometry x="197.60275862068966" y="76" width="58.587586206896546" height="54.36" as="geometry" />
        </mxCell>
        <mxCell id="lTvQ-CRZ7tVWmcgLaCs9-55" value="Auto Scaling&lt;div&gt;Group&lt;/div&gt;" style="sketch=0;outlineConnect=0;fontColor=#232F3E;gradientColor=none;fillColor=#ED7100;strokeColor=none;dashed=0;verticalLabelPosition=bottom;verticalAlign=top;align=center;html=1;fontSize=12;fontStyle=0;aspect=fixed;pointerEvents=1;shape=mxgraph.aws4.auto_scaling2;" parent="lTvQ-CRZ7tVWmcgLaCs9-69" vertex="1">
          <mxGeometry x="115.86206896551727" y="80.00000000000011" width="50.20689655172413" height="50.20689655172413" as="geometry" />
        </mxCell>
        <mxCell id="lTvQ-CRZ7tVWmcgLaCs9-56" value="Application Server&lt;div&gt;m6g.2xlarge&lt;br&gt;&lt;/div&gt;" style="sketch=0;outlineConnect=0;fontColor=#232F3E;gradientColor=none;fillColor=#ED7100;strokeColor=none;dashed=0;verticalLabelPosition=bottom;verticalAlign=top;align=center;html=1;fontSize=12;fontStyle=0;aspect=fixed;pointerEvents=1;shape=mxgraph.aws4.t3_instance;" parent="lTvQ-CRZ7tVWmcgLaCs9-69" vertex="1">
          <mxGeometry x="28.96551724137936" y="80.00000000000011" width="50.20689655172413" height="50.20689655172413" as="geometry" />
        </mxCell>
        <mxCell id="lTvQ-CRZ7tVWmcgLaCs9-63" value="RDS Master&lt;div&gt;db.m5.2xlarge&lt;/div&gt;" style="outlineConnect=0;dashed=0;verticalLabelPosition=bottom;verticalAlign=top;align=center;html=1;shape=mxgraph.aws3.rds_db_instance;fillColor=#2E73B8;gradientColor=none;" parent="lTvQ-CRZ7tVWmcgLaCs9-69" vertex="1">
          <mxGeometry x="31.37931034482756" y="179" width="47.79310344827586" height="66" as="geometry" />
        </mxCell>
        <mxCell id="lTvQ-CRZ7tVWmcgLaCs9-67" style="edgeStyle=orthogonalEdgeStyle;rounded=0;orthogonalLoop=1;jettySize=auto;html=1;entryX=1;entryY=0.5;entryDx=0;entryDy=0;entryPerimeter=0;" parent="lTvQ-CRZ7tVWmcgLaCs9-5" source="lTvQ-CRZ7tVWmcgLaCs9-63" target="lTvQ-CRZ7tVWmcgLaCs9-65" edge="1">
          <mxGeometry relative="1" as="geometry" />
        </mxCell>
        <mxCell id="lTvQ-CRZ7tVWmcgLaCs9-76" style="edgeStyle=orthogonalEdgeStyle;rounded=0;orthogonalLoop=1;jettySize=auto;html=1;" parent="lTvQ-CRZ7tVWmcgLaCs9-5" source="lTvQ-CRZ7tVWmcgLaCs9-71" target="lTvQ-CRZ7tVWmcgLaCs9-75" edge="1">
          <mxGeometry relative="1" as="geometry" />
        </mxCell>
        <mxCell id="lTvQ-CRZ7tVWmcgLaCs9-71" value="CloudFront" style="sketch=0;points=[[0,0,0],[0.25,0,0],[0.5,0,0],[0.75,0,0],[1,0,0],[0,1,0],[0.25,1,0],[0.5,1,0],[0.75,1,0],[1,1,0],[0,0.25,0],[0,0.5,0],[0,0.75,0],[1,0.25,0],[1,0.5,0],[1,0.75,0]];outlineConnect=0;fontColor=#232F3E;fillColor=#8C4FFF;strokeColor=#ffffff;dashed=0;verticalLabelPosition=bottom;verticalAlign=top;align=center;html=1;fontSize=12;fontStyle=0;aspect=fixed;shape=mxgraph.aws4.resourceIcon;resIcon=mxgraph.aws4.cloudfront;" parent="lTvQ-CRZ7tVWmcgLaCs9-5" vertex="1">
          <mxGeometry x="450" y="680" width="78" height="78" as="geometry" />
        </mxCell>
        <mxCell id="lTvQ-CRZ7tVWmcgLaCs9-72" value="&lt;span style=&quot;white-space: pre;&quot;&gt;&#x9;&lt;/span&gt;&lt;span style=&quot;white-space: pre;&quot;&gt;&#x9;&lt;/span&gt;&lt;span style=&quot;white-space: pre;&quot;&gt;&#x9;&lt;/span&gt;&lt;span style=&quot;white-space: pre;&quot;&gt;&#x9;&lt;/span&gt;NAT Gateway" style="sketch=0;outlineConnect=0;fontColor=#232F3E;gradientColor=none;fillColor=#8C4FFF;strokeColor=none;dashed=0;verticalLabelPosition=bottom;verticalAlign=top;align=center;html=1;fontSize=12;fontStyle=0;aspect=fixed;pointerEvents=1;shape=mxgraph.aws4.nat_gateway;direction=south;" parent="lTvQ-CRZ7tVWmcgLaCs9-5" vertex="1">
          <mxGeometry x="580" y="610" width="50" height="50" as="geometry" />
        </mxCell>
        <mxCell id="lTvQ-CRZ7tVWmcgLaCs9-73" style="edgeStyle=orthogonalEdgeStyle;rounded=0;orthogonalLoop=1;jettySize=auto;html=1;entryX=1;entryY=0.5;entryDx=0;entryDy=0;entryPerimeter=0;" parent="lTvQ-CRZ7tVWmcgLaCs9-5" source="lTvQ-CRZ7tVWmcgLaCs9-72" target="lTvQ-CRZ7tVWmcgLaCs9-71" edge="1">
          <mxGeometry relative="1" as="geometry">
            <Array as="points">
              <mxPoint x="605" y="719" />
            </Array>
          </mxGeometry>
        </mxCell>
        <mxCell id="lTvQ-CRZ7tVWmcgLaCs9-75" value="S3 Bucket" style="sketch=0;outlineConnect=0;fontColor=#232F3E;gradientColor=none;fillColor=#7AA116;strokeColor=none;dashed=0;verticalLabelPosition=bottom;verticalAlign=top;align=center;html=1;fontSize=12;fontStyle=0;aspect=fixed;pointerEvents=1;shape=mxgraph.aws4.bucket_with_objects;" parent="lTvQ-CRZ7tVWmcgLaCs9-5" vertex="1">
          <mxGeometry x="240" y="680" width="75" height="78" as="geometry" />
        </mxCell>
        <mxCell id="lTvQ-CRZ7tVWmcgLaCs9-9" style="edgeStyle=orthogonalEdgeStyle;rounded=0;orthogonalLoop=1;jettySize=auto;html=1;entryX=0.5;entryY=0;entryDx=0;entryDy=0;entryPerimeter=0;exitX=0.5;exitY=1;exitDx=0;exitDy=0;exitPerimeter=0;" parent="1" source="lTvQ-CRZ7tVWmcgLaCs9-8" target="lTvQ-CRZ7tVWmcgLaCs9-14" edge="1">
          <mxGeometry relative="1" as="geometry">
            <mxPoint x="129" y="515" as="targetPoint" />
            <mxPoint x="317" y="515" as="sourcePoint" />
          </mxGeometry>
        </mxCell>
        <mxCell id="lTvQ-CRZ7tVWmcgLaCs9-8" value="" style="sketch=0;points=[[0,0,0],[0.25,0,0],[0.5,0,0],[0.75,0,0],[1,0,0],[0,1,0],[0.25,1,0],[0.5,1,0],[0.75,1,0],[1,1,0],[0,0.25,0],[0,0.5,0],[0,0.75,0],[1,0.25,0],[1,0.5,0],[1,0.75,0]];outlineConnect=0;fontColor=#232F3E;fillColor=#01A88D;strokeColor=#ffffff;dashed=0;verticalLabelPosition=bottom;verticalAlign=top;align=center;html=1;fontSize=12;fontStyle=0;aspect=fixed;shape=mxgraph.aws4.resourceIcon;resIcon=mxgraph.aws4.desktop_and_app_streaming;" parent="1" vertex="1">
          <mxGeometry x="-18.09" y="110" width="60" height="60" as="geometry" />
        </mxCell>
      </root>
    </mxGraphModel>
  </diagram>
</mxfile>
